HIERARCHY
ROOT reference
{
  OFFSET 0 0 0
  CHANNELS 6 Xposition Yposition Zposition Zrotation Xrotation Yrotation
  JOINT Hips
  {
    OFFSET -19.7903 89.6696 85.8443
    CHANNELS 6 Xposition Yposition Zposition Zrotation Xrotation Yrotation
    JOINT Spine
    {
      OFFSET 0 7.57377 0
      CHANNELS 6 Xposition Yposition Zposition Zrotation Xrotation Yrotation
      JOINT Spine1
      {
        OFFSET 0 21.6353 0
        CHANNELS 6 Xposition Yposition Zposition Zrotation Xrotation Yrotation
        JOINT Neck
        {
          OFFSET 0 21.5464 1.95876
          CHANNELS 6 Xposition Yposition Zposition Zrotation Xrotation Yrotation
          JOINT Head
          {
            OFFSET 0 12.9308 -1.84726
            CHANNELS 6 Xposition Yposition Zposition Zrotation Xrotation Yrotation
            End Site
            {
              OFFSET 0 23.0907 0
            }
          }
        }
        JOINT LeftShoulder
        {
          OFFSET 3.70822 19.5981 -0.368577
          CHANNELS 6 Xposition Yposition Zposition Zrotation Xrotation Yrotation
          JOINT LeftArm
          {
            OFFSET 11.1726 0 0
            CHANNELS 6 Xposition Yposition Zposition Zrotation Xrotation Yrotation
            JOINT LeftForeArm
            {
              OFFSET 28.6421 0 0
              CHANNELS 6 Xposition Yposition Zposition Zrotation Xrotation Yrotation
              JOINT LeftHand
              {
                OFFSET 23.9346 0 0
                CHANNELS 6 Xposition Yposition Zposition Zrotation Xrotation Yrotation
                End Site
                {
                  OFFSET 13.8545 0 0
                }
              }
            }
          }
        }
        JOINT RightShoulder
        {
          OFFSET -3.63664 19.5981 -0.368577
          CHANNELS 6 Xposition Yposition Zposition Zrotation Xrotation Yrotation
          JOINT RightArm
          {
            OFFSET -11.1726 0 0
            CHANNELS 6 Xposition Yposition Zposition Zrotation Xrotation Yrotation
            JOINT RightForeArm
            {
              OFFSET -28.6421 0 0
              CHANNELS 6 Xposition Yposition Zposition Zrotation Xrotation Yrotation
              JOINT RightHand
              {
                OFFSET -23.9346 0 0
                CHANNELS 6 Xposition Yposition Zposition Zrotation Xrotation Yrotation
                End Site
                {
                  OFFSET -13.8545 0 0
                }
              }
            }
          }
        }
      }
    }
    JOINT LeftUpLeg
    {
      OFFSET 9.2363 0 0
      CHANNELS 6 Xposition Yposition Zposition Zrotation Xrotation Yrotation
      JOINT LeftLeg
      {
        OFFSET 0 -40.7061 0
        CHANNELS 6 Xposition Yposition Zposition Zrotation Xrotation Yrotation
        JOINT LeftFoot
        {
          OFFSET 0 -40.9975 0
          CHANNELS 6 Xposition Yposition Zposition Zrotation Xrotation Yrotation
          JOINT LeftToeBase
          {
            OFFSET 0 -6.00359 13.8545
            CHANNELS 6 Xposition Yposition Zposition Zrotation Xrotation Yrotation
            End Site
            {
              OFFSET 0 0 3.69452
            }
          }
        }
      }
    }
    JOINT RightUpLeg
    {
      OFFSET -9.2363 0 0
      CHANNELS 6 Xposition Yposition Zposition Zrotation Xrotation Yrotation
      JOINT RightLeg
      {
        OFFSET 0 -40.7061 0
        CHANNELS 6 Xposition Yposition Zposition Zrotation Xrotation Yrotation
        JOINT RightFoot
        {
          OFFSET 0 -40.9975 0
          CHANNELS 6 Xposition Yposition Zposition Zrotation Xrotation Yrotation
          JOINT RightToeBase
          {
            OFFSET 0 -6.00359 13.8545
            CHANNELS 6 Xposition Yposition Zposition Zrotation Xrotation Yrotation
            End Site
            {
              OFFSET 0 0 3.69452
            }
          }
        }
      }
    }
  }
}
MOTION
Frames:	8
Frame Time:	0.004
0 0 0 0 0 -0 -7.03138 81.3226 -173.158 -0.146758 0.455794 7.02831 -1.77636e-015 7.57377 0 -2.43478 -8.01166 -0.072609 0 21.6353 -2.84217e-014 2.86655 -2.86253 0.169681 -3.55271e-015 21.5464 1.95876 -3.56271 11.4891 4.90786 0 12.9308 -1.84726 2.33315 19.0401 5.21347 3.70822 19.5981 -0.368577 15.3269 2.00598 -10.2395 11.1726 2.84217e-014 0 -22.2875 3.88304 -1.45432 28.6421 0 0 4.2827 -7.0412 -1.06746 23.9346 -5.68434e-014 0 17.5178 -7.46663 -3.04182 -3.63664 19.5981 -0.368577 -15.3607 -0.171178 -6.13267 -11.1726 0 -2.84217e-014 18.4669 2.3926 12.6848 -28.6421 -2.84217e-014 0 -4.14433 -2.76545 0.244356 -23.9346 0 0 -17.1194 -1.47436 -8.50899 9.2363 1.42109e-014 0 -1.15187 1.00229 -2.0123 0 -40.7061 2.84217e-014 0.18537 5.51586 -0.344223 0 -40.9975 0 7.36462 -17.8258 -6.69667 -1.77636e-015 -6.00359 13.8545 -8.94531e-016 -1.59028e-015 -0 -9.2363 0 0 0.6907 -3.04556 2.17615 3.55271e-015 -40.7061 2.84217e-014 2.92161 18.0973 4.1926 0 -40.9975 -2.84217e-014 -14.3414 -18.4533 -16.7851 0 -6.00359 13.8545 8.82107e-016 -2.38542e-015 -1.98785e-016 
0 0 0 0 0 -0 -6.99541 81.2946 -173.128 -0.024495 0.481842 6.98507 -1.77636e-015 7.57377 0 -2.40463 -8.08691 -0.034739 -1.77636e-015 21.6353 0 2.71416 -2.8537 0.203147 0 21.5464 1.95876 -3.69983 11.638 4.91048 3.55271e-015 12.9308 -1.84726 2.30025 19.0501 5.21379 3.70822 19.5981 -0.368577 15.3335 1.98152 -10.2108 11.1726 2.84217e-014 0 -22.3047 3.92927 -1.52125 28.6421 2.84217e-014 -2.84217e-014 4.31349 -7.06133 -1.10539 23.9346 0 0 17.4225 -7.48117 -3.03325 -3.63664 19.5981 -0.368577 -15.3851 -0.204613 -6.09502 -11.1726 0 0 18.4927 2.19686 12.6908 -28.6421 -2.84217e-014 2.84217e-014 -4.06281 -2.6449 0.109739 -23.9346 0 0 -17.4388 -1.34586 -8.43441 9.2363 1.42109e-014 0 -1.2909 0.985291 -1.43614 0 -40.7061 2.84217e-014 0.228987 5.57008 -0.765774 0 -40.9975 -2.84217e-014 7.31668 -17.9184 -6.84903 -1.77636e-015 -6.00359 13.8545 -2.68359e-015 -1.59028e-015 -0 -9.2363 1.42109e-014 0 0.447124 -2.87175 2.08325 1.77636e-015 -40.7061 -2.84217e-014 3.00898 17.7687 4.07954 3.55271e-015 -40.9975 -2.84217e-014 -14.1085 -18.5941 -16.4687 1.77636e-015 -6.00359 13.8545 4.25523e-016 -7.95139e-016 7.45443e-017 
0 0 0 0 0 -0 -6.97635 81.2803 -173.11 0.036552 0.492601 6.95476 1.77636e-015 7.57377 0 -2.37831 -8.12453 -0.004003 3.55271e-015 21.6353 0 2.6273 -2.85023 0.230231 3.55271e-015 21.5464 1.95876 -3.7542 11.6878 4.90913 0 12.9308 -1.84726 2.25773 19.0916 5.21509 3.70822 19.5981 -0.368577 15.3446 1.98031 -10.2064 11.1726 0 -2.84217e-014 -22.3166 3.94866 -1.55894 28.6421 2.84217e-014 0 4.3242 -7.07547 -1.13047 23.9346 0 2.84217e-014 17.441 -7.49434 -3.03046 -3.63664 19.5981 -0.368577 -15.4025 -0.374085 -6.01454 -11.1726 0 -2.84217e-014 18.4982 2.24896 12.5387 -28.6421 0 0 -4.04323 -2.59497 0.087619 -23.9346 0 0 -17.586 -1.28986 -8.40698 9.2363 -1.42109e-014 0 -1.33401 1.04678 -1.1942 3.55271e-015 -40.7061 2.84217e-014 0.191901 5.4733 -0.970827 0 -40.9975 -2.84217e-014 7.3947 -17.9303 -6.8528 0 -6.00359 13.8545 1.88845e-015 3.18055e-015 1.19271e-015 -9.2363 1.42109e-014 0 0.323927 -2.77319 2.01926 -1.77636e-015 -40.7061 0 3.04387 17.6041 4.04994 -7.10543e-015 -40.9975 2.84217e-014 -14.1791 -18.6731 -16.3318 0 -6.00359 13.8545 -1.31384e-015 7.95139e-016 3.47873e-016 
0 0 0 0 0 -0 -6.96125 81.2656 -173.092 0.089928 0.495229 6.92667 -3.55271e-015 7.57377 0 -2.35885 -8.15921 0.019417 -1.77636e-015 21.6353 0 2.56478 -2.83402 0.251144 3.55271e-015 21.5464 1.95876 -3.81579 11.7085 4.92119 3.55271e-015 12.9308 -1.84726 2.21849 19.1786 5.22885 3.70822 19.5981 -0.368577 15.3414 1.95026 -10.1914 11.1726 0 2.84217e-014 -22.3237 3.94497 -1.58377 28.6421 2.84217e-014 2.84217e-014 4.3154 -7.0598 -1.15704 23.9346 0 0 17.4655 -7.48063 -3.04487 -3.63664 19.5981 -0.368577 -15.4205 -0.405064 -6.00502 -11.1726 0 0 18.5148 2.11081 12.5383 -28.6421 -2.84217e-014 0 -4.03015 -2.47686 0.045361 -23.9346 0 0 -17.6062 -1.17691 -8.3732 9.2363 1.42109e-014 0 -1.39136 1.05347 -0.942106 0 -40.7061 2.84217e-014 0.209675 5.48574 -1.05662 0 -40.9975 0 7.26062 -18.0012 -7.05355 0 -6.00359 13.8545 3.97569e-016 1.59028e-015 -0 -9.2363 1.42109e-014 0 0.202811 -2.66332 1.97512 -1.77636e-015 -40.7061 0 3.09925 17.442 4.14233 -7.10543e-015 -40.9975 -2.84217e-014 -14.1311 -18.7367 -16.2964 -1.77636e-015 -6.00359 13.8545 -8.69683e-016 7.95139e-016 9.93923e-017 
0 0 0 0 0 -0 -6.94697 81.254 -173.074 0.13567 0.500578 6.89823 -5.32907e-015 7.57377 2.84217e-014 -2.33079 -8.19542 0.043992 -1.77636e-015 21.6353 2.84217e-014 2.49581 -2.82337 0.272566 0 21.5464 1.95876 -3.8521 11.6952 4.93863 0 12.9308 -1.84726 2.17413 19.3243 5.24735 3.70822 19.5981 -0.368577 15.3499 1.94444 -10.1757 11.1726 0 2.84217e-014 -22.3426 3.98359 -1.62444 28.6421 2.84217e-014 2.84217e-014 4.33139 -7.07263 -1.17079 23.9346 0 0 17.4726 -7.49395 -3.05137 -3.63664 19.5981 -0.368577 -15.4203 -0.419786 -6.01536 -11.1726 0 2.84217e-014 18.5313 1.93326 12.567 -28.6421 -2.84217e-014 0 -4.00383 -2.36065 -0.013954 -23.9346 0 0 -17.8241 -1.05099 -8.34372 9.2363 0 0 -1.44282 1.0498 -0.69466 0 -40.7061 -2.84217e-014 0.22989 5.54641 -1.49859 0 -40.9975 0 7.4041 -18.0065 -6.78482 1.77636e-015 -6.00359 13.8545 1.2921e-015 1.59028e-015 7.95139e-016 -9.2363 1.42109e-014 2.84217e-014 0.10138 -2.56022 1.84942 0 -40.7061 -2.84217e-014 3.10568 17.2828 4.21865 7.10543e-015 -40.9975 0 -14.2667 -18.7781 -16.1931 0 -6.00359 13.8545 6.58474e-016 0 -0 
0 0 0 0 0 -0 -6.93319 81.2427 -173.05 0.179868 0.488031 6.85373 0 7.57377 0 -2.29227 -8.22241 0.076697 -1.77636e-015 21.6353 0 2.4215 -2.80612 0.300998 0 21.5464 1.95876 -3.90754 11.7845 4.92757 -3.55271e-015 12.9308 -1.84726 2.11533 19.3097 5.23692 3.70822 19.5981 -0.368577 15.3655 1.93408 -10.1656 11.1726 0 -2.84217e-014 -22.3694 4.00884 -1.64981 28.6421 -2.84217e-014 0 4.34127 -7.07614 -1.19711 23.9346 0 2.84217e-014 17.5309 -7.49686 -3.0443 -3.63664 19.5981 -0.368577 -15.4374 -0.457467 -5.998 -11.1726 -2.84217e-014 0 18.5727 1.74783 12.5488 -28.6421 0 -2.84217e-014 -3.97001 -2.22534 -0.04269 -23.9346 -2.84217e-014 2.84217e-014 -18.0877 -0.903864 -8.30007 9.2363 0 0 -1.49265 1.08358 -0.449166 3.55271e-015 -40.7061 0 0.259075 5.54576 -1.64879 0 -40.9975 -2.84217e-014 7.34673 -18.0846 -6.90126 0 -6.00359 13.8545 3.97569e-016 1.59028e-015 -3.97569e-016 -9.2363 -1.42109e-014 2.84217e-014 0.002406 -2.4214 1.74324 3.55271e-015 -40.7061 -2.84217e-014 3.10767 17.098 4.34627 3.55271e-015 -40.9975 -2.84217e-014 -14.2143 -18.8414 -16.0949 0 -6.00359 13.8545 -1.02498e-015 -2.38542e-015 -0 
0 0 0 0 0 -0 -6.92046 81.2339 -173.028 0.223471 0.482741 6.81616 -3.55271e-015 7.57377 2.84217e-014 -2.25397 -8.25564 0.104932 0 21.6353 5.68434e-014 2.34679 -2.78316 0.324814 0 21.5464 1.95876 -3.95734 11.8132 4.94118 0 12.9308 -1.84726 2.05983 19.3671 5.25264 3.70822 19.5981 -0.368577 15.3751 1.89694 -10.1546 11.1726 -2.84217e-014 0 -22.3932 4.06385 -1.6588 28.6421 0 0 4.34649 -7.08677 -1.22907 23.9346 0 0 17.5454 -7.49853 -3.02142 -3.63664 19.5981 -0.368577 -15.4432 -0.49153 -6.00104 -11.1726 0 0 18.6042 1.57921 12.5562 -28.6421 0 0 -3.94445 -2.12439 -0.076434 -23.9346 0 2.84217e-014 -18.4793 -0.783595 -8.24665 9.2363 0 2.84217e-014 -1.54728 1.09911 -0.237381 0 -40.7061 0 0.290684 5.57599 -1.82732 0 -40.9975 -2.84217e-014 7.31314 -18.1233 -6.90553 0 -6.00359 13.8545 2.98177e-016 1.59028e-015 -0 -9.2363 1.42109e-014 0 -0.098713 -2.27788 1.63609 -1.77636e-015 -40.7061 2.84217e-014 3.12339 16.8775 4.44933 3.55271e-015 -40.9975 0 -14.2179 -18.8863 -16.0078 -1.77636e-015 -6.00359 13.8545 -2.73329e-016 -7.95139e-016 -3.97569e-016 
0 0 0 0 0 -0 -6.911 81.2257 -173.007 0.248092 0.493397 6.78491 -3.55271e-015 7.57377 0 -2.21748 -8.30955 0.122663 -1.77636e-015 21.6353 -2.84217e-014 2.30294 -2.7604 0.339304 -3.55271e-015 21.5464 1.95876 -4.01301 11.8398 4.96056 3.55271e-015 12.9308 -1.84726 2.00412 19.4417 5.27441 3.70822 19.5981 -0.368577 15.3673 1.89379 -10.134 11.1726 0 -2.84217e-014 -22.4071 4.07824 -1.68088 28.6421 2.84217e-014 -2.84217e-014 4.35786 -7.08361 -1.25577 23.9346 0 0 17.491 -7.50027 -3.00733 -3.63664 19.5981 -0.368577 -15.4693 -0.488958 -5.98153 -11.1726 0 0 18.6434 1.43471 12.5598 -28.6421 2.84217e-014 -2.84217e-014 -3.97062 -2.01517 -0.09162 -23.9346 0 -2.84217e-014 -18.5584 -0.676521 -8.20081 9.2363 0 -2.84217e-014 -1.57914 1.09639 -0.061589 0 -40.7061 -2.84217e-014 0.311811 5.60586 -2.04538 1.77636e-015 -40.9975 2.84217e-014 7.34324 -18.149 -6.84134 0 -6.00359 13.8545 6.95746e-016 1.59028e-015 7.95139e-016 -9.2363 0 2.84217e-014 -0.175761 -2.14193 1.55361 -1.77636e-015 -40.7061 2.84217e-014 3.13674 16.6384 4.58108 -3.55271e-015 -40.9975 0 -14.1899 -18.9125 -15.956 -1.77636e-015 -6.00359 13.8545 -5.34234e-016 0 -2.48481e-016 
